<mxfile host="app.diagrams.net" agent="Mozilla/5.0 (X11; Linux x86_64; rv:138.0) Gecko/20100101 Firefox/138.0" version="27.0.6">
  <diagram name="Page-1" id="X0BfEYH63kqLNM9XeYR4">
    <mxGraphModel dx="815" dy="546" grid="1" gridSize="10" guides="1" tooltips="1" connect="1" arrows="1" fold="1" page="1" pageScale="1" pageWidth="850" pageHeight="1100" math="0" shadow="0">
      <root>
        <mxCell id="0" />
        <mxCell id="1" parent="0" />
        <mxCell id="p-r1LHU5KxPGclNKDd7G-15" value="" style="edgeStyle=orthogonalEdgeStyle;rounded=0;orthogonalLoop=1;jettySize=auto;html=1;" edge="1" parent="1" source="p-r1LHU5KxPGclNKDd7G-1" target="p-r1LHU5KxPGclNKDd7G-14">
          <mxGeometry relative="1" as="geometry" />
        </mxCell>
        <mxCell id="p-r1LHU5KxPGclNKDd7G-1" value="&lt;div&gt;API&lt;br&gt;&lt;br&gt;&lt;/div&gt;simplificada y configurable" style="ellipse;whiteSpace=wrap;html=1;aspect=fixed;fillColor=#dae8fc;strokeColor=#6c8ebf;" vertex="1" parent="1">
          <mxGeometry x="330" y="230" width="90" height="90" as="geometry" />
        </mxCell>
        <mxCell id="p-r1LHU5KxPGclNKDd7G-5" value="" style="edgeStyle=orthogonalEdgeStyle;rounded=0;orthogonalLoop=1;jettySize=auto;html=1;" edge="1" parent="1" source="p-r1LHU5KxPGclNKDd7G-2" target="p-r1LHU5KxPGclNKDd7G-1">
          <mxGeometry relative="1" as="geometry" />
        </mxCell>
        <mxCell id="p-r1LHU5KxPGclNKDd7G-2" value="CLI" style="ellipse;whiteSpace=wrap;html=1;aspect=fixed;fillColor=#dae8fc;strokeColor=#6c8ebf;" vertex="1" parent="1">
          <mxGeometry x="90" y="250" width="50" height="50" as="geometry" />
        </mxCell>
        <mxCell id="p-r1LHU5KxPGclNKDd7G-6" value="expone API para fácil uso y experimentación" style="text;html=1;align=center;verticalAlign=middle;whiteSpace=wrap;rounded=0;" vertex="1" parent="1">
          <mxGeometry x="130" y="240" width="160" height="30" as="geometry" />
        </mxCell>
        <mxCell id="p-r1LHU5KxPGclNKDd7G-10" value="" style="edgeStyle=orthogonalEdgeStyle;rounded=0;orthogonalLoop=1;jettySize=auto;html=1;exitX=0;exitY=0.5;exitDx=0;exitDy=0;entryX=1;entryY=0.5;entryDx=0;entryDy=0;" edge="1" parent="1" source="p-r1LHU5KxPGclNKDd7G-11" target="p-r1LHU5KxPGclNKDd7G-1">
          <mxGeometry relative="1" as="geometry">
            <mxPoint x="400" y="350" as="targetPoint" />
            <mxPoint x="399.99998367346416" y="294.73857142857133" as="sourcePoint" />
          </mxGeometry>
        </mxCell>
        <mxCell id="p-r1LHU5KxPGclNKDd7G-11" value="&lt;div&gt;Script de&lt;/div&gt;&lt;div&gt;Python&lt;/div&gt;" style="ellipse;whiteSpace=wrap;html=1;aspect=fixed;fillColor=#d5e8d4;strokeColor=#82b366;" vertex="1" parent="1">
          <mxGeometry x="630" y="240" width="70" height="70" as="geometry" />
        </mxCell>
        <mxCell id="p-r1LHU5KxPGclNKDd7G-13" value="usa API para generación programática de resultados" style="text;html=1;align=center;verticalAlign=middle;whiteSpace=wrap;rounded=0;" vertex="1" parent="1">
          <mxGeometry x="455" y="240" width="195" height="30" as="geometry" />
        </mxCell>
        <mxCell id="p-r1LHU5KxPGclNKDd7G-14" value="Diferentes métodos de AxLS" style="rounded=1;whiteSpace=wrap;html=1;fillColor=#dae8fc;strokeColor=#6c8ebf;" vertex="1" parent="1">
          <mxGeometry x="315" y="430" width="120" height="60" as="geometry" />
        </mxCell>
        <mxCell id="p-r1LHU5KxPGclNKDd7G-17" value="&lt;div&gt;Simplifica el uso de los métodos&lt;/div&gt;de AxLS" style="text;html=1;align=center;verticalAlign=middle;whiteSpace=wrap;rounded=0;" vertex="1" parent="1">
          <mxGeometry x="375" y="320" width="75" height="80" as="geometry" />
        </mxCell>
      </root>
    </mxGraphModel>
  </diagram>
</mxfile>
